<svg class="vector" width="300px" height="300px" xmlns="http://www.w3.org/2000/svg" baseProfile="full" version="1.1" style="width: 300px; height: 300px; fill: none; stroke-width: 5;">
  <g transform="translate(0,0)">
    <path id="layer_3" d="" style="stroke: rgb(68, 68, 68); stroke-width: 5; stroke-linecap: round; stroke-linejoin: round; fill: none;"></path>
    <path id="layer_2" d="" style="stroke: rgb(119, 119, 119); stroke-width: 5; stroke-linecap: round; stroke-linejoin: round; fill: none;"></path>
    <path id="layer_1" d="M150,60 L150,60 L120,120 L120,120 L150,180 L150,180 L180,120 L180,120 L210,180 M90,180 L90,180 L60,240 L60,240 L240,240 M90,180 L90,180 L120,240 M150,60 L150,60 L180,120 M150,180 L150,180 L120,240 M150,180 L150,180 L180,240 L180,240 L210,180 L210,180 L240,240 M120,120 L120,120 L180,120 M90,180 L90,180 L210,180 M120,120 L120,120 L90,180 "
      style="stroke: rgb(255, 255, 255); stroke-width: 2; stroke-linecap: round; stroke-linejoin: bevel; fill: none;"></path>
  </g>
  <g>
    <path id="mirror_layer_3" d="M0,0" transform="" style="stroke: rgb(68, 68, 68); stroke-width: 5; stroke-linecap: round; stroke-linejoin: round; fill: none;"></path>
    <path id="mirror_layer_2" d="M0,0" transform="" style="stroke: rgb(119, 119, 119); stroke-width: 5; stroke-linecap: round; stroke-linejoin: round; fill: none;"></path>
    <path id="mirror_layer_1" d="M0,0" transform="" style="stroke: rgb(255, 255, 255); stroke-width: 2; stroke-linecap: round; stroke-linejoin: bevel; fill: none;"></path>
  </g>
</svg>
